<svg width="119" height="12" viewBox="0 0 119 12" fill="none" xmlns="http://www.w3.org/2000/svg">
<path d="M0.504 0.415356H2.584V11.6154H0.504V0.415356ZM7.69338 2.15936V5.56736H13.1014V7.32736H7.69338V11.6154H5.61338V0.415356H13.7894V2.15936H7.69338ZM23.6948 11.7754C22.8308 11.7754 21.9934 11.6527 21.1828 11.4074C20.3828 11.162 19.7481 10.8367 19.2788 10.4314L19.9988 8.81536C20.4574 9.17802 21.0174 9.47669 21.6788 9.71136C22.3508 9.93536 23.0228 10.0474 23.6948 10.0474C24.5268 10.0474 25.1454 9.91402 25.5508 9.64736C25.9668 9.38069 26.1748 9.02869 26.1748 8.59136C26.1748 8.27136 26.0574 8.01002 25.8228 7.80736C25.5988 7.59402 25.3108 7.42869 24.9588 7.31136C24.6068 7.19402 24.1268 7.06069 23.5188 6.91136C22.6654 6.70869 21.9721 6.50602 21.4388 6.30336C20.9161 6.10069 20.4628 5.78602 20.0788 5.35936C19.7054 4.92202 19.5188 4.33536 19.5188 3.59936C19.5188 2.98069 19.6841 2.42069 20.0148 1.91936C20.3561 1.40736 20.8628 1.00202 21.5348 0.703356C22.2174 0.404689 23.0494 0.255356 24.0308 0.255356C24.7134 0.255356 25.3854 0.340689 26.0468 0.511356C26.7081 0.682023 27.2788 0.927356 27.7587 1.24736L27.1028 2.86336C26.6121 2.57536 26.1001 2.35669 25.5668 2.20736C25.0334 2.05802 24.5161 1.98336 24.0148 1.98336C23.1934 1.98336 22.5801 2.12202 22.1748 2.39936C21.7801 2.67669 21.5828 3.04469 21.5828 3.50336C21.5828 3.82336 21.6948 4.08469 21.9188 4.28736C22.1534 4.49002 22.4468 4.65002 22.7988 4.76736C23.1508 4.88469 23.6308 5.01802 24.2388 5.16736C25.0708 5.35936 25.7534 5.56202 26.2868 5.77536C26.8201 5.97802 27.2734 6.29269 27.6468 6.71936C28.0308 7.14602 28.2228 7.72202 28.2228 8.44736C28.2228 9.06602 28.0521 9.62602 27.7108 10.1274C27.3801 10.6287 26.8734 11.0287 26.1908 11.3274C25.5081 11.626 24.6761 11.7754 23.6948 11.7754ZM40.5733 11.6154L40.5573 4.19136L36.8773 10.3354H35.9493L32.2693 4.28736V11.6154H30.2853V0.415356H31.9973L36.4453 7.83936L40.8133 0.415356H42.5253L42.5413 11.6154H40.5733ZM52.8305 9.02336H47.2305L46.1265 11.6154H43.9825L49.0225 0.415356H51.0705L56.1265 11.6154H53.9505L52.8305 9.02336ZM52.1425 7.39136L50.0305 2.49536L47.9345 7.39136H52.1425ZM64.8789 11.6154L62.5909 8.33536C62.4949 8.34602 62.3509 8.35136 62.1589 8.35136H59.6309V11.6154H57.5509V0.415356H62.1589C63.1295 0.415356 63.9722 0.575356 64.6869 0.895356C65.4122 1.21536 65.9669 1.67402 66.3509 2.27136C66.7349 2.86869 66.9269 3.57802 66.9269 4.39936C66.9269 5.24202 66.7189 5.96736 66.3029 6.57536C65.8975 7.18336 65.3109 7.63669 64.5429 7.93536L67.1189 11.6154H64.8789ZM64.8309 4.39936C64.8309 3.68469 64.5962 3.13536 64.1269 2.75136C63.6575 2.36736 62.9695 2.17536 62.0629 2.17536H59.6309V6.63936H62.0629C62.9695 6.63936 63.6575 6.44736 64.1269 6.06336C64.5962 5.66869 64.8309 5.11402 64.8309 4.39936ZM71.3698 2.17536H67.6578V0.415356H77.1618V2.17536H73.4498V11.6154H71.3698V2.17536ZM88.3286 11.7754C87.198 11.7754 86.174 11.53 85.2566 11.0394C84.35 10.538 83.6353 9.85002 83.1126 8.97536C82.6006 8.10069 82.3446 7.11402 82.3446 6.01536C82.3446 4.91669 82.606 3.93002 83.1286 3.05536C83.6513 2.18069 84.366 1.49802 85.2726 1.00736C86.19 0.506022 87.214 0.255356 88.3446 0.255356C89.262 0.255356 90.0993 0.415356 90.8566 0.735356C91.614 1.05536 92.254 1.51936 92.7766 2.12736L91.4326 3.39136C90.622 2.51669 89.6246 2.07936 88.4406 2.07936C87.6726 2.07936 86.9846 2.25002 86.3766 2.59136C85.7686 2.92202 85.294 3.38602 84.9526 3.98336C84.6113 4.58069 84.4406 5.25802 84.4406 6.01536C84.4406 6.77269 84.6113 7.45002 84.9526 8.04736C85.294 8.64469 85.7686 9.11402 86.3766 9.45536C86.9846 9.78602 87.6726 9.95136 88.4406 9.95136C89.6246 9.95136 90.622 9.50869 91.4326 8.62336L92.7766 9.90336C92.254 10.5114 91.6086 10.9754 90.8406 11.2954C90.0833 11.6154 89.246 11.7754 88.3286 11.7754ZM94.7696 0.415356H96.8496V11.6154H94.7696V0.415356ZM102.151 2.17536H98.439V0.415356H107.943V2.17536H104.231V11.6154H102.151V2.17536ZM114.18 7.66336V11.6154H112.1V7.69536L107.7 0.415356H109.924L113.204 5.87136L116.516 0.415356H118.564L114.18 7.66336Z" fill="black"/>
</svg>
